HIERARCHY
ROOT Hips
{
  OFFSET 19.8499 43.4319 8.06064
  CHANNELS 6 Xposition Yposition Zposition Zrotation Xrotation Yrotation
  JOINT Spine
  {
    OFFSET 0 9.92346 -1.22733
    CHANNELS 6 Xposition Yposition Zposition Zrotation Xrotation Yrotation
    JOINT Spine1
    {
      OFFSET -0.000138865 11.6454 -1.42234
      CHANNELS 6 Xposition Yposition Zposition Zrotation Xrotation Yrotation
      JOINT Spine2
      {
        OFFSET 9.14407e-005 13.3602 -1.62646
        CHANNELS 6 Xposition Yposition Zposition Zrotation Xrotation Yrotation
        JOINT Neck
        {
          OFFSET 2.52021e-005 15.0325 0.792905
          CHANNELS 6 Xposition Yposition Zposition Zrotation Xrotation Yrotation
          JOINT Head
          {
            OFFSET 0 10.3218 3.14243
            CHANNELS 6 Xposition Yposition Zposition Zrotation Xrotation Yrotation
            End Site
            {
              OFFSET 0.000154173 18.4747 6.6364
            }
          }
        }
        JOINT LeftShoulder
        {
          OFFSET 6.10582 9.11042 0.705551
          CHANNELS 6 Xposition Yposition Zposition Zrotation Xrotation Yrotation
          JOINT LeftArm
          {
            OFFSET 12.655 -0.265934 -2.60092
            CHANNELS 6 Xposition Yposition Zposition Zrotation Xrotation Yrotation
            JOINT LeftForeArm
            {
              OFFSET 27.4047 3.91267e-005 0
              CHANNELS 6 Xposition Yposition Zposition Zrotation Xrotation Yrotation
              JOINT LeftHand
              {
                OFFSET 27.6145 2.89518e-005 1.96466e-005
                CHANNELS 6 Xposition Yposition Zposition Zrotation Xrotation Yrotation
                JOINT LeftHandMiddle1
                {
                  OFFSET 12.7755 1.3342e-005 2.04185e-005
                  CHANNELS 6 Xposition Yposition Zposition Zrotation Xrotation Yrotation
                  JOINT LeftHandMiddle2
                  {
                    OFFSET 3.61397 0 0
                    CHANNELS 6 Xposition Yposition Zposition Zrotation Xrotation Yrotation
                    JOINT LeftHandMiddle3
                    {
                      OFFSET 3.45976 0 -2.64197e-005
                      CHANNELS 6 Xposition Yposition Zposition Zrotation Xrotation Yrotation
                      End Site
                      {
                        OFFSET 3.68019 0 3.27692e-005
                      }
                    }
                  }
                }
                JOINT LeftHandThumb1
                {
                  OFFSET 3.78881 -2.167 3.00309
                  CHANNELS 6 Xposition Yposition Zposition Zrotation Xrotation Yrotation
                  JOINT LeftHandThumb2
                  {
                    OFFSET 3.67544 -2.12201 2.12201
                    CHANNELS 6 Xposition Yposition Zposition Zrotation Xrotation Yrotation
                    JOINT LeftHandThumb3
                    {
                      OFFSET 3.39436 -1.95974 1.95979
                      CHANNELS 6 Xposition Yposition Zposition Zrotation Xrotation Yrotation
                      End Site
                      {
                        OFFSET 2.6794 -1.54694 1.54692
                      }
                    }
                  }
                }
                JOINT LeftHandIndex1
                {
                  OFFSET 12.2666 -0.231669 2.82206
                  CHANNELS 6 Xposition Yposition Zposition Zrotation Xrotation Yrotation
                  JOINT LeftHandIndex2
                  {
                    OFFSET 3.89197 0 3.87215e-005
                    CHANNELS 6 Xposition Yposition Zposition Zrotation Xrotation Yrotation
                    JOINT LeftHandIndex3
                    {
                      OFFSET 3.41516 0 0
                      CHANNELS 6 Xposition Yposition Zposition Zrotation Xrotation Yrotation
                      End Site
                      {
                        OFFSET 3.07799 0 0
                      }
                    }
                  }
                }
                JOINT LeftHandRing1
                {
                  OFFSET 12.147 0.00989498 -2.21663
                  CHANNELS 6 Xposition Yposition Zposition Zrotation Xrotation Yrotation
                  JOINT LeftHandRing2
                  {
                    OFFSET 3.60119 0 3.51122e-005
                    CHANNELS 6 Xposition Yposition Zposition Zrotation Xrotation Yrotation
                    JOINT LeftHandRing3
                    {
                      OFFSET 3.30732 0 -2.08933e-005
                      CHANNELS 6 Xposition Yposition Zposition Zrotation Xrotation Yrotation
                      End Site
                      {
                        OFFSET 3.66012 0 0
                      }
                    }
                  }
                }
                JOINT LeftHandPinky1
                {
                  OFFSET 10.9082 -0.226365 -4.72582
                  CHANNELS 6 Xposition Yposition Zposition Zrotation Xrotation Yrotation
                  JOINT LeftHandPinky2
                  {
                    OFFSET 4.13665 0 2.68984e-005
                    CHANNELS 6 Xposition Yposition Zposition Zrotation Xrotation Yrotation
                    JOINT LeftHandPinky3
                    {
                      OFFSET 2.59484 0 -3.6009e-005
                      CHANNELS 6 Xposition Yposition Zposition Zrotation Xrotation Yrotation
                      End Site
                      {
                        OFFSET 2.92387 0 1.87321e-005
                      }
                    }
                  }
                }
              }
            }
          }
        }
        JOINT RightShoulder
        {
          OFFSET -6.1057 9.11051 0.705563
          CHANNELS 6 Xposition Yposition Zposition Zrotation Xrotation Yrotation
          JOINT RightArm
          {
            OFFSET -12.655 -0.266021 -2.6009
            CHANNELS 6 Xposition Yposition Zposition Zrotation Xrotation Yrotation
            JOINT RightForeArm
            {
              OFFSET -27.4047 3.28841e-005 0
              CHANNELS 6 Xposition Yposition Zposition Zrotation Xrotation Yrotation
              JOINT RightHand
              {
                OFFSET -27.6145 2.26615e-005 1.83241e-005
                CHANNELS 6 Xposition Yposition Zposition Zrotation Xrotation Yrotation
                JOINT RightHandMiddle1
                {
                  OFFSET -12.7755 0 1.80116e-005
                  CHANNELS 6 Xposition Yposition Zposition Zrotation Xrotation Yrotation
                  JOINT RightHandMiddle2
                  {
                    OFFSET -3.61397 0 0
                    CHANNELS 6 Xposition Yposition Zposition Zrotation Xrotation Yrotation
                    JOINT RightHandMiddle3
                    {
                      OFFSET -3.45976 0 -2.64579e-005
                      CHANNELS 6 Xposition Yposition Zposition Zrotation Xrotation Yrotation
                      End Site
                      {
                        OFFSET -3.68019 0 3.25098e-005
                      }
                    }
                  }
                }
                JOINT RightHandThumb1
                {
                  OFFSET -3.78881 -2.167 3.00309
                  CHANNELS 6 Xposition Yposition Zposition Zrotation Xrotation Yrotation
                  JOINT RightHandThumb2
                  {
                    OFFSET -3.67544 -2.12201 2.12201
                    CHANNELS 6 Xposition Yposition Zposition Zrotation Xrotation Yrotation
                    JOINT RightHandThumb3
                    {
                      OFFSET -3.39436 -1.95975 1.95979
                      CHANNELS 6 Xposition Yposition Zposition Zrotation Xrotation Yrotation
                      End Site
                      {
                        OFFSET -2.6794 -1.54695 1.54692
                      }
                    }
                  }
                }
                JOINT RightHandIndex1
                {
                  OFFSET -12.2666 -0.231673 2.82206
                  CHANNELS 6 Xposition Yposition Zposition Zrotation Xrotation Yrotation
                  JOINT RightHandIndex2
                  {
                    OFFSET -3.89197 0 3.7513e-005
                    CHANNELS 6 Xposition Yposition Zposition Zrotation Xrotation Yrotation
                    JOINT RightHandIndex3
                    {
                      OFFSET -3.41516 0 0
                      CHANNELS 6 Xposition Yposition Zposition Zrotation Xrotation Yrotation
                      End Site
                      {
                        OFFSET -3.07799 0 0
                      }
                    }
                  }
                }
                JOINT RightHandRing1
                {
                  OFFSET -12.147 0.0098909 -2.21663
                  CHANNELS 6 Xposition Yposition Zposition Zrotation Xrotation Yrotation
                  JOINT RightHandRing2
                  {
                    OFFSET -3.60119 0 3.4867e-005
                    CHANNELS 6 Xposition Yposition Zposition Zrotation Xrotation Yrotation
                    JOINT RightHandRing3
                    {
                      OFFSET -3.30732 0 -2.11146e-005
                      CHANNELS 6 Xposition Yposition Zposition Zrotation Xrotation Yrotation
                      End Site
                      {
                        OFFSET -3.66012 0 0
                      }
                    }
                  }
                }
                JOINT RightHandPinky1
                {
                  OFFSET -10.9082 -0.226369 -4.72582
                  CHANNELS 6 Xposition Yposition Zposition Zrotation Xrotation Yrotation
                  JOINT RightHandPinky2
                  {
                    OFFSET -4.13665 0 2.56096e-005
                    CHANNELS 6 Xposition Yposition Zposition Zrotation Xrotation Yrotation
                    JOINT RightHandPinky3
                    {
                      OFFSET -2.59484 0 -3.66612e-005
                      CHANNELS 6 Xposition Yposition Zposition Zrotation Xrotation Yrotation
                      End Site
                      {
                        OFFSET -2.92387 0 1.86957e-005
                      }
                    }
                  }
                }
              }
            }
          }
        }
      }
    }
  }
  JOINT RightUpLeg
  {
    OFFSET -9.12445 -6.6564 -0.0553779
    CHANNELS 6 Xposition Yposition Zposition Zrotation Xrotation Yrotation
    JOINT RightLeg
    {
      OFFSET -0.24468 -40.5954 -0.514528
      CHANNELS 6 Xposition Yposition Zposition Zrotation Xrotation Yrotation
      JOINT RightFoot
      {
        OFFSET 0.244669 -42.0479 -2.06023
        CHANNELS 6 Xposition Yposition Zposition Zrotation Xrotation Yrotation
        JOINT RightToeBase
        {
          OFFSET -0.37336 -10.4922 12.6407
          CHANNELS 6 Xposition Yposition Zposition Zrotation Xrotation Yrotation
          End Site
          {
            OFFSET 0 0 9.99252
          }
        }
      }
    }
  }
  JOINT LeftUpLeg
  {
    OFFSET 9.12445 -6.6564 -0.0553779
    CHANNELS 6 Xposition Yposition Zposition Zrotation Xrotation Yrotation
    JOINT LeftLeg
    {
      OFFSET 0.24468 -40.5954 -0.517041
      CHANNELS 6 Xposition Yposition Zposition Zrotation Xrotation Yrotation
      JOINT LeftFoot
      {
        OFFSET -0.24467 -42.048 -2.05764
        CHANNELS 6 Xposition Yposition Zposition Zrotation Xrotation Yrotation
        JOINT LeftToeBase
        {
          OFFSET 0.37336 -10.4922 12.6407
          CHANNELS 6 Xposition Yposition Zposition Zrotation Xrotation Yrotation
          End Site
          {
            OFFSET 0 0 9.99252
          }
        }
      }
    }
  }
}
MOTION
Frames:	4
Frame Time:	0.0333333
17.2527 43.9858 6.44056 13.5557 -11.0744 -68.4177 5.64832e-007 9.92346 -1.22733 -1.59635 20.7315 -5.30213 -0.000138865 11.6454 -1.42234 -1.81462 15.9672 -5.42822 9.14407e-005 13.3602 -1.62646 -1.64743 15.8291 -5.90901 2.52021e-005 15.0325 0.792905 -3.10437 2.64541 -1.16104 2.37075e-006 10.3218 3.14243 5.00615 -15.4719 -10.599 6.10582 9.11042 0.705551 1.26215 1.10612 -7.75425 12.655 -0.265934 -2.60092 -34.4571 -3.33379 -87.107 27.4047 3.91267e-005 6.58811e-006 -5.4152e-006 -4.26289e-007 -26.1775 27.6145 2.89518e-005 1.96466e-005 33.1612 -13.7597 -14.3159 12.7755 1.3342e-005 2.04185e-005 -14.2687 -0.213268 1.70371 3.61397 2.66014e-006 2.46236e-006 -13.138 -0.180932 1.57115 3.45976 5.43247e-007 -2.64197e-005 -8.2176 -0.0709756 0.987924 3.78881 -2.167 3.00309 4.88878 -7.62661 6.52405 3.67544 -2.12201 2.12201 11.0859 -22.3452 22.4292 3.39436 -1.95974 1.95979 6.74597 -10.4959 9.21153 12.2666 -0.231669 2.82206 -13.2695 -0.184554 1.58661 3.89197 1.68687e-006 3.87215e-005 -12.1068 -0.15376 1.44972 3.41516 5.74911e-007 -8.77053e-006 -7.20216 -0.0545349 0.866529 12.147 0.00989498 -2.21663 -14.7261 -0.227084 1.75715 3.60119 1.51294e-006 3.51122e-005 -13.5634 -0.192784 1.6211 3.30732 4.53174e-006 -2.08933e-005 -8.65913 -0.0787853 1.04062 10.9082 -0.226365 -4.72582 -15.5279 -0.234024 5.96624 4.13665 2.29995e-006 2.68984e-005 -15.3639 0.82625 -2.13957 2.59484 5.93904e-008 -3.6009e-005 -9.97002 -0.104395 1.19669 -6.1057 9.11051 0.705563 -1.03917 4.24082 21.8169 -12.655 -0.266021 -2.6009 34.5491 -17.6968 76.0647 -27.4047 3.28841e-005 5.27564e-006 1.50918e-006 -2.50432e-007 13.7928 -27.6145 2.26615e-005 1.83241e-005 -52.8553 -20.1956 19.85 -12.7755 8.94577e-006 1.80116e-005 34.2834 -1.21398 -3.93454 -3.61397 2.7565e-006 3.08034e-006 30.0582 -0.939468 -3.49805 -3.45976 -1.97218e-007 -2.64579e-005 15.0359 -0.239021 -1.81094 -3.78881 -2.167 3.00309 43.8155 26.8996 -14.8691 -3.67544 -2.12201 2.12201 -50.9148 11.3992 14.6545 -3.39436 -1.95975 1.95979 -27.2218 -1.00596 9.68349 -12.2666 -0.231673 2.82206 34.2834 -1.21398 -3.93454 -3.89197 -7.20555e-008 3.7513e-005 30.0588 -0.939511 -3.4981 -3.41516 2.52991e-007 -8.60584e-006 15.0362 -0.23902 -1.81098 -12.147 0.0098909 -2.21663 34.2834 -1.21398 -3.93454 -3.60119 2.38565e-007 3.4867e-005 30.0582 -0.939468 -3.49805 -3.30732 3.76018e-006 -2.11146e-005 15.0359 -0.239021 -1.81094 -10.9082 -0.226369 -4.72582 34.2834 -1.21398 -3.93454 -4.13665 4.31063e-007 2.56096e-005 30.0582 -0.939468 -3.49805 -2.59484 -9.57149e-007 -3.66612e-005 15.0359 -0.239021 -1.81094 -9.12445 -6.6564 -0.0553779 -37.9789 -65.0994 21.9324 -0.24468 -40.5954 -0.514528 176.279 38.4727 170.989 0.244669 -42.0479 -2.06023 18.332 18.6522 23.7276 -0.37336 -10.4922 12.6407 35.137 -63.2513 28.5711 9.12445 -6.6564 -0.0553779 109.709 -53.0823 99.6028 0.24468 -40.5954 -0.517041 173.223 58.036 -179.808 -0.24467 -42.048 -2.05764 -30.3358 -8.60231 -10.1846 0.37336 -10.4922 12.6407 4.71113e-006 -9.08275 -1.84436e-005 
18.1846 43.517 7.05852 13.9497 -11.1641 -66.7263 5.64832e-007 9.92346 -1.22733 -1.34052 21.2602 -4.3856 -0.000138865 11.6454 -1.42234 -1.5853 16.4372 -4.61962 9.14407e-005 13.3602 -1.62646 -1.45011 16.321 -5.0809 2.52021e-005 15.0325 0.792905 -2.18346 2.61978 -1.85866 2.37075e-006 10.3218 3.14243 5.62028 -16.8784 -13.1147 6.10582 9.11042 0.705551 3.88691 0.774969 -7.53038 12.655 -0.265934 -2.60092 -33.8815 -2.59154 -86.5145 27.4047 3.91267e-005 6.58811e-006 -1.1194e-005 1.90193e-006 -32.6561 27.6145 2.89518e-005 1.96466e-005 34.054 -9.57942 -12.4644 12.7755 1.3342e-005 2.04185e-005 -12.5464 -0.165081 1.50155 3.61397 2.66014e-006 2.46236e-006 -7.921 -0.0659397 0.952497 3.45976 5.43247e-007 -2.64197e-005 -6.27663 -0.0414364 0.755642 3.78881 -2.167 3.00309 4.89653 -7.61529 6.50387 3.67544 -2.12201 2.12201 11.0859 -22.3452 22.4292 3.39436 -1.95974 1.95979 6.74598 -10.4959 9.21153 12.2666 -0.231669 2.82206 -11.1377 -0.130193 1.33518 3.89197 1.68687e-006 3.87215e-005 -6.48003 -0.0441571 0.78003 3.41516 5.74911e-007 -8.77053e-006 -4.85159 -0.0247599 0.584545 12.147 0.00989498 -2.21663 -13.1818 -0.182159 1.5763 3.60119 1.51294e-006 3.51122e-005 -8.52459 -0.0763539 1.02457 3.30732 4.53174e-006 -2.08933e-005 -6.89624 -0.0500109 0.829897 10.9082 -0.226365 -4.72582 -14.5122 -0.202251 5.84786 4.13665 2.29995e-006 2.68984e-005 -10.8562 0.634039 -2.74152 2.59484 5.93904e-008 -3.6009e-005 -8.73592 -0.0801871 1.04977 -6.1057 9.11051 0.705563 -0.295694 4.52696 20.9616 -12.655 -0.266021 -2.6009 31.2383 -19.757 73.177 -27.4047 3.28841e-005 5.27564e-006 -1.61742e-005 1.21413e-006 10.5959 -27.6145 2.26615e-005 1.83241e-005 -52.9436 -20.9903 15.1785 -12.7755 8.94577e-006 1.80116e-005 33.1109 -1.13459 -3.81544 -3.61397 2.7565e-006 3.08034e-006 30.0567 -0.939385 -3.49788 -3.45976 -1.97218e-007 -2.64579e-005 15.0351 -0.238991 -1.81086 -3.78881 -2.167 3.00309 43.8139 26.8973 -14.8687 -3.67544 -2.12201 2.12201 -50.9143 11.3972 14.6547 -3.39436 -1.95975 1.95979 -27.2214 -1.00693 9.6836 -12.2666 -0.231673 2.82206 33.1109 -1.13459 -3.81544 -3.89197 -7.20555e-008 3.7513e-005 30.0571 -0.939411 -3.49793 -3.41516 2.52991e-007 -8.60584e-006 15.0353 -0.238989 -1.81088 -12.147 0.0098909 -2.21663 33.1109 -1.13459 -3.81544 -3.60119 2.38565e-007 3.4867e-005 30.0567 -0.939385 -3.49788 -3.30732 3.76018e-006 -2.11146e-005 15.0351 -0.238991 -1.81086 -10.9082 -0.226369 -4.72582 33.1109 -1.13459 -3.81544 -4.13665 4.31063e-007 2.56096e-005 30.0567 -0.939385 -3.49788 -2.59484 -9.57149e-007 -3.66612e-005 15.0351 -0.238991 -1.81086 -9.12445 -6.6564 -0.0553779 -42.6149 -64.9808 18.7517 -0.24468 -40.5954 -0.514528 175.998 38.1122 170.575 0.244669 -42.0479 -2.06023 17.6921 18.3266 23.577 -0.37336 -10.4922 12.6407 34.8265 -64.138 28.3914 9.12445 -6.6564 -0.0553779 112.444 -53.3326 104.778 0.24468 -40.5954 -0.517041 173.491 57.0569 179.735 -0.24467 -42.048 -2.05764 -27.5649 -9.64051 -9.01606 0.37336 -10.4922 12.6407 2.95501e-006 -7.9408 -1.0175e-005 
18.9598 43.1495 7.60737 14.3186 -10.9799 -64.9561 5.64832e-007 9.92346 -1.22733 -1.20243 21.6234 -3.56081 -0.000138865 11.6454 -1.42234 -1.3881 16.7585 -3.91366 9.14407e-005 13.3602 -1.62646 -1.27899 16.6655 -4.34233 2.52021e-005 15.0325 0.792905 -1.04855 2.58216 -2.50576 2.37075e-006 10.3218 3.14243 6.67615 -18.4567 -15.2091 6.10582 9.11042 0.705551 6.08101 0.493972 -7.06213 12.655 -0.265934 -2.60092 -32.4765 -1.81571 -85.3327 27.4047 3.91267e-005 6.58811e-006 -2.59496e-005 7.96095e-007 -39.3789 27.6145 2.89518e-005 1.96466e-005 34.6321 -5.23782 -11.469 12.7755 1.3342e-005 2.04185e-005 -13.9632 -0.204261 1.66796 3.61397 2.66014e-006 2.46236e-006 -6.08912 -0.0389997 0.733154 3.45976 5.43247e-007 -2.64197e-005 -6.07316 -0.0387859 0.731237 3.78881 -2.167 3.00309 4.91681 -7.5856 6.45039 3.67544 -2.12201 2.12201 11.0859 -22.3452 22.4292 3.39436 -1.95974 1.95979 6.74597 -10.4959 9.21152 12.2666 -0.231669 2.82206 -12.1178 -0.154034 1.45103 3.89197 1.68687e-006 3.87215e-005 -4.21121 -0.0186664 0.507536 3.41516 5.74911e-007 -8.77053e-006 -4.21121 -0.0186498 0.507538 12.147 0.00989498 -2.21663 -14.7885 -0.229005 1.76444 3.60119 1.51294e-006 3.51122e-005 -6.88274 -0.0498142 0.828282 3.30732 4.53174e-006 -2.08933e-005 -6.88274 -0.0498056 0.828285 10.9082 -0.226365 -4.72582 -16.6826 -0.27267 6.10013 4.13665 2.29995e-006 2.68984e-005 -9.77951 0.581141 -2.88298 2.59484 5.93904e-008 -3.6009e-005 -9.28641 -0.0905922 1.11537 -6.1057 9.11051 0.705563 0.502038 4.78305 19.8763 -12.655 -0.266021 -2.6009 29.6688 -21.5403 70.7337 -27.4047 3.28841e-005 5.27564e-006 6.62053e-006 2.39463e-006 9.84061 -27.6145 2.26615e-005 1.83241e-005 -50.9964 -21.1998 12.1415 -12.7755 8.94577e-006 1.80116e-005 31.9383 -1.05764 -3.69474 -3.61397 2.7565e-006 3.08034e-006 30.0556 -0.939332 -3.49778 -3.45976 -1.97218e-007 -2.64579e-005 15.0346 -0.238969 -1.8108 -3.78881 -2.167 3.00309 43.8123 26.895 -14.8684 -3.67544 -2.12201 2.12201 -50.9139 11.396 14.6549 -3.39436 -1.95975 1.95979 -27.2213 -1.0075 9.68366 -12.2666 -0.231673 2.82206 31.9383 -1.05764 -3.69474 -3.89197 -7.20555e-008 3.7513e-005 30.0559 -0.939351 -3.4978 -3.41516 2.52991e-007 -8.60584e-006 15.0347 -0.238973 -1.81081 -12.147 0.0098909 -2.21663 31.9383 -1.05764 -3.69474 -3.60119 2.38565e-007 3.4867e-005 30.0556 -0.939332 -3.49778 -3.30732 3.76018e-006 -2.11146e-005 15.0346 -0.238969 -1.8108 -10.9082 -0.226369 -4.72582 31.9383 -1.05764 -3.69474 -4.13665 4.31063e-007 2.56096e-005 30.0556 -0.939332 -3.49778 -2.59484 -9.57149e-007 -3.66612e-005 15.0346 -0.238969 -1.8108 -9.12445 -6.6564 -0.0553779 -47.2723 -64.6251 14.8124 -0.24468 -40.5954 -0.514528 175.788 37.7982 170.292 0.244669 -42.0479 -2.06023 16.9035 17.8554 22.9924 -0.37336 -10.4922 12.6407 34.0347 -64.7947 27.7171 9.12445 -6.6564 -0.0553779 115.159 -53.5082 109.578 0.24468 -40.5954 -0.517041 173.669 56.3525 179.379 -0.24467 -42.048 -2.05764 -25.3811 -10.3361 -8.01797 0.37336 -10.4922 12.6407 4.82961e-006 -6.90438 -2.7102e-005 
19.6118 42.9028 8.01005 14.5664 -10.5142 -63.4446 5.64832e-007 9.92346 -1.22733 -1.14141 21.7778 -3.02917 -0.000138865 11.6454 -1.42234 -1.23479 16.8975 -3.45267 9.14407e-005 13.3602 -1.62646 -1.14316 16.8224 -3.84634 2.52021e-005 15.0325 0.792905 0.041952 2.55949 -3.05615 2.37075e-006 10.3218 3.14243 8.00577 -20.2132 -16.924 6.10582 9.11042 0.705551 7.67469 0.28537 -6.43907 12.655 -0.265934 -2.60092 -30.2987 -1.36966 -83.6297 27.4047 3.91267e-005 6.58811e-006 4.07746e-006 1.07309e-006 -45.5437 27.6145 2.89518e-005 1.96466e-005 34.5338 -0.868205 -10.7044 12.7755 1.3342e-005 2.04185e-005 -15.4178 -0.248795 1.83777 3.61397 2.66014e-006 2.46236e-006 -7.54383 -0.0598184 0.90741 3.45976 5.43247e-007 -2.64197e-005 -7.52784 -0.0595705 0.905489 3.78881 -2.167 3.00309 4.94896 -7.53872 6.3638 3.67544 -2.12201 2.12201 11.0859 -22.3452 22.4292 3.39436 -1.95974 1.95979 6.74597 -10.4959 9.21154 12.2666 -0.231669 2.82206 -13.1267 -0.180623 1.56982 3.89197 1.68687e-006 3.87215e-005 -5.21993 -0.0286897 0.628808 3.41516 5.74911e-007 -8.77053e-006 -5.21994 -0.0286565 0.628814 12.147 0.00989498 -2.21663 -16.4369 -0.282525 1.95604 3.60119 1.51294e-006 3.51122e-005 -8.53128 -0.0764912 1.02536 3.30732 4.53174e-006 -2.08933e-005 -8.53129 -0.0764828 1.02537 10.9082 -0.226365 -4.72582 -18.9063 -0.354702 6.35569 4.13665 2.29995e-006 2.68984e-005 -12.0017 0.687356 -2.58999 2.59484 5.93904e-008 -3.6009e-005 -11.5106 -0.139022 1.3793 -6.1057 9.11051 0.705563 1.12503 4.95466 18.9706 -12.655 -0.266021 -2.6009 29.2932 -22.8534 69.294 -27.4047 3.28841e-005 5.27564e-006 -1.42989e-005 -1.13436e-006 10.3256 -27.6145 2.26615e-005 1.83241e-005 -47.226 -20.3698 10.4615 -12.7755 8.94577e-006 1.80116e-005 30.844 -0.988067 -3.58072 -3.61397 2.7565e-006 3.08034e-006 30.0551 -0.939289 -3.49772 -3.45976 -1.97218e-007 -2.64579e-005 15.0344 -0.238966 -1.81077 -3.78881 -2.167 3.00309 43.8107 26.8929 -14.8682 -3.67544 -2.12201 2.12201 -50.9139 11.3958 14.6549 -3.39436 -1.95975 1.95979 -27.2212 -1.00763 9.68367 -12.2666 -0.231673 2.82206 30.844 -0.988067 -3.58072 -3.89197 -7.20555e-008 3.7513e-005 30.0551 -0.9393 -3.49772 -3.41516 2.52991e-007 -8.60584e-006 15.0343 -0.238963 -1.81076 -12.147 0.0098909 -2.21663 30.844 -0.988067 -3.58072 -3.60119 2.38565e-007 3.4867e-005 30.0551 -0.939289 -3.49772 -3.30732 3.76018e-006 -2.11146e-005 15.0344 -0.238966 -1.81077 -10.9082 -0.226369 -4.72582 30.844 -0.988067 -3.58072 -4.13665 4.31063e-007 2.56096e-005 30.0551 -0.939289 -3.49772 -2.59484 -9.57149e-007 -3.66612e-005 15.0344 -0.238966 -1.81077 -9.12445 -6.6564 -0.0553779 -50.9001 -64.3337 11.2355 -0.24468 -40.5954 -0.514528 175.691 37.5943 170.119 0.244669 -42.0479 -2.06023 16.1302 17.6624 22.4328 -0.37336 -10.4922 12.6407 33.2336 -65.1381 26.9836 9.12445 -6.6564 -0.0553779 117.624 -53.3477 113.592 0.24468 -40.5954 -0.517041 173.811 55.945 179.014 -0.24467 -42.048 -2.05764 -23.7547 -10.7039 -7.24828 0.37336 -10.4922 12.6407 -1.08259e-006 -5.94978 1.41767e-005 
